ffmpeg started on 2016-12-07 at 08:14:08
Report written to "Output/x264/results/ffmpeg/crowd_run_2160p50slow3500k.log"
Command line:
Tools/ffmpeg/ffmpeg -benchmark -y -i Input/y4m/crowd_run_2160p50.y4m -c:v libx264 -preset slow -b:v 3500k -an Output/x264/encoded/crowd_run_2160p50slow3500k.mkv
ffmpeg version N-82227-gdb23fde Copyright (c) 2000-2016 the FFmpeg developers
  built with gcc 5.4.0 (Ubuntu 5.4.0-6ubuntu1~16.04.2) 20160609
  configuration: --prefix=/home/jaroslav/ffmpeg_build --pkg-config-flags=--static --extra-cflags=-I/home/jaroslav/ffmpeg_build/include --extra-ldflags=-L/home/jaroslav/ffmpeg_build/lib --bindir=/home/jaroslav/bin --enable-gpl --enable-libass --enable-libfdk-aac --enable-libfreetype --enable-libmp3lame --enable-libopus --enable-libtheora --enable-libvorbis --enable-libvpx --enable-libx264 --enable-libx265 --enable-nvenc --enable-libmfx --enable-libxvid --enable-libgsm --enable-libopencore-amrnb --enable-version3 --enable-nonfree
  libavutil      55. 35.100 / 55. 35.100
  libavcodec     57. 66.101 / 57. 66.101
  libavformat    57. 57.100 / 57. 57.100
  libavdevice    57.  2.100 / 57.  2.100
  libavfilter     6. 66.100 /  6. 66.100
  libswscale      4.  3.100 /  4.  3.100
  libswresample   2.  4.100 /  2.  4.100
  libpostproc    54.  2.100 / 54.  2.100
Input #0, yuv4mpegpipe, from 'Input/y4m/crowd_run_2160p50.y4m':
  Duration: 00:00:10.00, start: 0.000000, bitrate: 4976642 kb/s
    Stream #0:0: Video: rawvideo (I420 / 0x30323449), yuv420p(progressive), 3840x2160, SAR 1:1 DAR 16:9, 50 fps, 50 tbr, 50 tbn, 50 tbc
[libx264 @ 0x355e1c0] using SAR=1/1
[libx264 @ 0x355e1c0] using cpu capabilities: MMX2 SSE2Fast SSSE3 SSE4.2 AVX FMA3 AVX2 LZCNT BMI2
[libx264 @ 0x355e1c0] profile High, level 5.2
[libx264 @ 0x355e1c0] 264 - core 148 - H.264/MPEG-4 AVC codec - Copyleft 2003-2016 - http://www.videolan.org/x264.html - options: cabac=1 ref=5 deblock=1:0:0 analyse=0x3:0x113 me=hex subme=8 psy=1 psy_rd=1.00:0.00 mixed_ref=1 me_range=16 chroma_me=1 trellis=2 8x8dct=1 cqm=0 deadzone=21,11 fast_pskip=1 chroma_qp_offset=-2 threads=6 lookahead_threads=1 sliced_threads=0 nr=0 decimate=1 interlaced=0 bluray_compat=0 constrained_intra=0 bframes=3 b_pyramid=2 b_adapt=1 b_bias=0 direct=3 weightb=1 open_gop=0 weightp=2 keyint=250 keyint_min=25 scenecut=40 intra_refresh=0 rc_lookahead=50 rc=abr mbtree=1 bitrate=3500 ratetol=1.0 qcomp=0.60 qpmin=0 qpmax=69 qpstep=4 ip_ratio=1.40 aq=1:1.00
Output #0, matroska, to 'Output/x264/encoded/crowd_run_2160p50slow3500k.mkv':
  Metadata:
    encoder         : Lavf57.57.100
    Stream #0:0: Video: h264 (libx264) (H264 / 0x34363248), yuv420p, 3840x2160 [SAR 1:1 DAR 16:9], q=-1--1, 3500 kb/s, 50 fps, 1k tbn, 50 tbc
    Metadata:
      encoder         : Lavc57.66.101 libx264
    Side data:
      cpb: bitrate max/min/avg: 0/0/3500000 buffer size: 0 vbv_delay: -1
Stream mapping:
  Stream #0:0 -> #0:0 (rawvideo (native) -> h264 (libx264))
Press [q] to stop, [?] for help
frame=   19 fps=0.0 q=0.0 size=       0kB time=00:00:00.00 bitrate=N/A speed=   0x    frame=   34 fps= 33 q=0.0 size=       0kB time=00:00:00.00 bitrate=N/A speed=   0x    frame=   47 fps= 30 q=0.0 size=       0kB time=00:00:00.00 bitrate=N/A speed=   0x    frame=   57 fps= 12 q=0.0 size=       0kB time=00:00:00.00 bitrate=N/A speed=   0x    frame=   62 fps= 12 q=44.0 size=       1kB time=-00:00:00.01 bitrate=N/A speed=N/A    frame=   67 fps= 11 q=46.0 size=       1kB time=00:00:00.08 bitrate=  72.5kbits/s speed=0.0138x    frame=   72 fps= 11 q=58.0 size=       1kB time=00:00:00.18 bitrate=  32.4kbits/s speed=0.0277x    frame=   79 fps= 11 q=58.0 size=       1kB time=00:00:00.32 bitrate=  18.3kbits/s speed=0.0447x    frame=   86 fps= 11 q=58.0 size=       1kB time=00:00:00.46 bitrate=  12.7kbits/s speed=0.0594x    frame=   91 fps= 11 q=58.0 size=       1kB time=00:00:00.56 bitrate=  10.5kbits/s speed=0.0678x    frame=   98 fps= 11 q=58.0 size=       1kB time=00:00:00.70 bitrate=   8.4kbits/s speed=0.0798x    frame=  104 fps= 11 q=57.0 size=       1kB time=00:00:00.82 bitrate=   7.2kbits/s speed=0.0872x    frame=  110 fps= 11 q=57.0 size=       1kB time=00:00:00.94 bitrate=   6.2kbits/s speed=0.0944x    frame=  116 fps= 11 q=57.0 size=       1kB time=00:00:01.06 bitrate=   5.5kbits/s speed=0.0992x    frame=  124 fps= 11 q=56.0 size=       1kB time=00:00:01.22 bitrate=   4.8kbits/s speed=0.108x    frame=  128 fps= 11 q=56.0 size=       1kB time=00:00:01.30 bitrate=   4.5kbits/s speed=0.11x    frame=  135 fps= 11 q=56.0 size=       1kB time=00:00:01.44 bitrate=   4.1kbits/s speed=0.116x    frame=  143 fps= 11 q=56.0 size=       1kB time=00:00:01.60 bitrate=   3.7kbits/s speed=0.122x    frame=  151 fps= 11 q=55.0 size=       1kB time=00:00:01.76 bitrate=   3.3kbits/s speed=0.126x    frame=  158 fps= 11 q=55.0 size=       1kB time=00:00:01.90 bitrate=   3.1kbits/s speed=0.131x    frame=  165 fps= 11 q=55.0 size=       1kB time=00:00:02.04 bitrate=   2.9kbits/s speed=0.136x    frame=  170 fps= 11 q=55.0 size=       1kB time=00:00:02.14 bitrate=   2.7kbits/s speed=0.138x    frame=  175 fps= 11 q=55.0 size=       1kB time=00:00:02.24 bitrate=   2.6kbits/s speed=0.138x    frame=  183 fps= 11 q=55.0 size=       1kB time=00:00:02.40 bitrate=   2.4kbits/s speed=0.142x    frame=  190 fps= 11 q=55.0 size=       1kB time=00:00:02.54 bitrate=   2.3kbits/s speed=0.145x    frame=  196 fps= 11 q=55.0 size=       1kB time=00:00:02.66 bitrate=   2.2kbits/s speed=0.147x    frame=  203 fps= 11 q=55.0 size=       1kB time=00:00:02.80 bitrate=   2.1kbits/s speed=0.15x    frame=  208 fps= 11 q=55.0 size=       1kB time=00:00:02.90 bitrate=   2.0kbits/s speed=0.151x    frame=  215 fps= 11 q=55.0 size=       1kB time=00:00:03.04 bitrate=   1.9kbits/s speed=0.154x    frame=  220 fps= 11 q=55.0 size=       1kB time=00:00:03.14 bitrate=   1.9kbits/s speed=0.154x    frame=  228 fps= 11 q=55.0 size=       1kB time=00:00:03.30 bitrate=   1.8kbits/s speed=0.157x    frame=  232 fps= 11 q=54.0 size=       1kB time=00:00:03.38 bitrate=   1.7kbits/s speed=0.157x    frame=  238 fps= 11 q=54.0 size=       1kB time=00:00:03.50 bitrate=   1.7kbits/s speed=0.159x    frame=  245 fps= 11 q=54.0 size=       1kB time=00:00:03.64 bitrate=   1.6kbits/s speed=0.161x    frame=  249 fps= 11 q=54.0 size=       1kB time=00:00:03.72 bitrate=   1.6kbits/s speed=0.161x    frame=  255 fps= 11 q=54.0 size=       1kB time=00:00:03.84 bitrate=   1.5kbits/s speed=0.162x    frame=  262 fps= 11 q=54.0 size=       1kB time=00:00:03.98 bitrate=   1.5kbits/s speed=0.163x    frame=  269 fps= 11 q=54.0 size=       1kB time=00:00:04.12 bitrate=   1.4kbits/s speed=0.166x    frame=  272 fps= 11 q=54.0 size=       1kB time=00:00:04.18 bitrate=   1.4kbits/s speed=0.165x    frame=  279 fps= 11 q=54.0 size=       1kB time=00:00:04.32 bitrate=   1.4kbits/s speed=0.166x    frame=  285 fps= 11 q=54.0 size=       1kB time=00:00:04.44 bitrate=   1.3kbits/s speed=0.167x    frame=  291 fps= 11 q=54.0 size=       1kB time=00:00:04.56 bitrate=   1.3kbits/s speed=0.167x    frame=  295 fps= 11 q=54.0 size=       1kB time=00:00:04.64 bitrate=   1.3kbits/s speed=0.167x    frame=  301 fps= 11 q=54.0 size=       1kB time=00:00:04.76 bitrate=   1.2kbits/s speed=0.168x    frame=  306 fps= 10 q=51.0 size=       1kB time=00:00:04.86 bitrate=   1.2kbits/s speed=0.162x    frame=  313 fps= 10 q=55.0 size=    2198kB time=00:00:05.00 bitrate=3600.9kbits/s speed=0.164x    frame=  321 fps= 10 q=55.0 size=    2198kB time=00:00:05.16 bitrate=3489.3kbits/s speed=0.165x    frame=  329 fps= 10 q=55.0 size=    2198kB time=00:00:05.32 bitrate=3384.3kbits/s speed=0.166x    frame=  334 fps= 10 q=55.0 size=    2198kB time=00:00:05.42 bitrate=3321.9kbits/s speed=0.167x    frame=  339 fps= 10 q=55.0 size=    2198kB time=00:00:05.52 bitrate=3261.7kbits/s speed=0.167x    frame=  345 fps= 10 q=55.0 size=    2198kB time=00:00:05.64 bitrate=3192.4kbits/s speed=0.168x    frame=  351 fps= 10 q=55.0 size=    2198kB time=00:00:05.76 bitrate=3125.9kbits/s speed=0.169x    frame=  357 fps= 10 q=55.0 size=    2198kB time=00:00:05.88 bitrate=3062.1kbits/s speed=0.17x    frame=  361 fps= 10 q=55.0 size=    2198kB time=00:00:05.96 bitrate=3021.0kbits/s speed=0.169x    frame=  367 fps= 10 q=55.0 size=    2198kB time=00:00:06.08 bitrate=2961.4kbits/s speed=0.17x    frame=  373 fps= 10 q=55.0 size=    2198kB time=00:00:06.20 bitrate=2904.1kbits/s speed=0.17x    frame=  378 fps= 10 q=55.0 size=    2198kB time=00:00:06.30 bitrate=2858.0kbits/s speed=0.171x    frame=  385 fps= 10 q=55.0 size=    2198kB time=00:00:06.44 bitrate=2795.8kbits/s speed=0.171x    frame=  391 fps= 10 q=55.0 size=    2198kB time=00:00:06.56 bitrate=2744.7kbits/s speed=0.172x    frame=  397 fps= 10 q=55.0 size=    2198kB time=00:00:06.68 bitrate=2695.4kbits/s speed=0.173x    frame=  402 fps= 10 q=55.0 size=    2198kB time=00:00:06.78 bitrate=2655.7kbits/s speed=0.173x    frame=  409 fps= 10 q=55.0 size=    2198kB time=00:00:06.92 bitrate=2601.9kbits/s speed=0.173x    frame=  414 fps= 10 q=55.0 size=    2198kB time=00:00:07.02 bitrate=2564.9kbits/s speed=0.173x    frame=  421 fps= 10 q=55.0 size=    2198kB time=00:00:07.16 bitrate=2514.7kbits/s speed=0.174x    frame=  427 fps= 10 q=55.0 size=    2198kB time=00:00:07.28 bitrate=2473.3kbits/s speed=0.175x    frame=  431 fps= 10 q=55.0 size=    2198kB time=00:00:07.36 bitrate=2446.4kbits/s speed=0.174x    frame=  437 fps= 10 q=55.0 size=    2198kB time=00:00:07.48 bitrate=2407.2kbits/s speed=0.175x    frame=  444 fps= 10 q=55.0 size=    2198kB time=00:00:07.62 bitrate=2363.0kbits/s speed=0.175x    frame=  449 fps= 10 q=55.0 size=    2198kB time=00:00:07.72 bitrate=2332.3kbits/s speed=0.175x    frame=  452 fps= 10 q=55.0 size=    2198kB time=00:00:07.78 bitrate=2314.4kbits/s speed=0.174x    frame=  458 fps= 10 q=55.0 size=    2198kB time=00:00:07.90 bitrate=2279.2kbits/s speed=0.175x    frame=  464 fps= 10 q=55.0 size=    2198kB time=00:00:08.02 bitrate=2245.1kbits/s speed=0.175x    frame=  470 fps= 10 q=55.0 size=    2198kB time=00:00:08.14 bitrate=2212.0kbits/s speed=0.176x    frame=  474 fps= 10 q=55.0 size=    2198kB time=00:00:08.22 bitrate=2190.5kbits/s speed=0.175x    frame=  481 fps= 10 q=55.0 size=    2198kB time=00:00:08.36 bitrate=2153.8kbits/s speed=0.176x    frame=  487 fps= 10 q=55.0 size=    2198kB time=00:00:08.48 bitrate=2123.3kbits/s speed=0.176x    frame=  490 fps= 10 q=55.0 size=    2198kB time=00:00:08.54 bitrate=2108.4kbits/s speed=0.176x    frame=  498 fps= 10 q=55.0 size=    2198kB time=00:00:08.70 bitrate=2069.7kbits/s speed=0.176x    frame=  500 fps=9.2 q=-1.0 Lsize=    4444kB time=00:00:09.94 bitrate=3661.7kbits/s speed=0.183x    
video:4439kB audio:0kB subtitle:0kB other streams:0kB global headers:0kB muxing overhead: 0.097300%
bench: utime=187.704s
bench: maxrss=2147760kB
[libx264 @ 0x355e1c0] frame I:2     Avg QP:43.99  size:129500
[libx264 @ 0x355e1c0] frame P:126   Avg QP:50.85  size: 17707
[libx264 @ 0x355e1c0] frame B:372   Avg QP:50.88  size:  5524
[libx264 @ 0x355e1c0] consecutive B-frames:  0.8%  0.0%  0.0% 99.2%
[libx264 @ 0x355e1c0] mb I  I16..4: 42.1% 54.4%  3.5%
[libx264 @ 0x355e1c0] mb P  I16..4: 10.0%  0.8%  0.0%  P16..4: 17.5%  0.8%  2.2%  0.0%  0.0%    skip:68.7%
[libx264 @ 0x355e1c0] mb B  I16..4:  0.1%  0.0%  0.0%  B16..8: 16.3%  0.1%  0.0%  direct: 0.3%  skip:83.3%  L0:31.8% L1:68.1% BI: 0.1%
[libx264 @ 0x355e1c0] final ratefactor: 46.95
[libx264 @ 0x355e1c0] 8x8 transform intra:13.4% inter:96.2%
[libx264 @ 0x355e1c0] direct mvs  spatial:98.9% temporal:1.1%
[libx264 @ 0x355e1c0] coded y,uvDC,uvAC intra: 4.4% 36.5% 2.0% inter: 0.2% 2.4% 0.0%
[libx264 @ 0x355e1c0] i16 v,h,dc,p: 57% 24%  6% 13%
[libx264 @ 0x355e1c0] i8 v,h,dc,ddl,ddr,vr,hd,vl,hu:  8%  4% 23% 12% 13% 12% 12%  9%  8%
[libx264 @ 0x355e1c0] i4 v,h,dc,ddl,ddr,vr,hd,vl,hu:  6%  3%  2% 16% 18% 15% 15% 10% 16%
[libx264 @ 0x355e1c0] i8c dc,h,v,p: 79%  9%  9%  2%
[libx264 @ 0x355e1c0] Weighted P-Frames: Y:1.6% UV:0.8%
[libx264 @ 0x355e1c0] ref P L0: 64.5%  0.6% 19.8%  7.2%  7.8%  0.1%
[libx264 @ 0x355e1c0] ref B L0: 88.5%  7.3%  3.0%  1.2%
[libx264 @ 0x355e1c0] ref B L1: 97.4%  2.6%
[libx264 @ 0x355e1c0] kb/s:3636.05
